<svg width="150" height="150" viewBox="0 0 150 150" fill="none" xmlns="http://www.w3.org/2000/svg">
<g clip-path="url(#clip0_1_2)">
<g filter="url(#filter0_d_1_2)">
<path d="M112.5 140.625C96.9844 140.625 84.375 128.016 84.375 112.5C84.375 96.9844 96.9844 84.375 112.5 84.375C128.016 84.375 140.625 96.9844 140.625 112.5C140.625 128.016 128.016 140.625 112.5 140.625ZM112.5 93.75C102.141 93.75 93.75 102.141 93.75 112.5C93.75 122.859 102.141 131.25 112.5 131.25C122.859 131.25 131.25 122.859 131.25 112.5C131.25 102.141 122.859 93.75 112.5 93.75Z" fill="#FF0000"/>
</g>
<path d="M75 103.125H37.5V112.5H75V103.125Z" fill="black"/>
<path d="M84.375 75H37.5V84.375H84.375V75Z" fill="black"/>
<path d="M75 131.25H28.125V18.75H65.625V46.875C65.625 52.0313 69.8437 56.25 75 56.25H103.125V70.3125H112.5V46.875C112.5 45.4687 112.031 44.5313 111.094 43.5938L78.2813 10.7812C77.3438 9.84375 76.4063 9.375 75 9.375H28.125C22.9687 9.375 18.75 13.5937 18.75 18.75V131.25C18.75 136.406 22.9687 140.625 28.125 140.625H75V131.25ZM75 20.625L101.25 46.875H75V20.625Z" fill="black"/>
<g clip-path="url(#clip1_1_2)">
<path d="M109.16 111.465C108.886 111.19 108.513 111.036 108.125 111.036C107.737 111.036 107.364 111.19 107.09 111.465C106.815 111.739 106.661 112.112 106.661 112.5C106.661 112.888 106.815 113.261 107.09 113.535L111.465 117.91C111.601 118.046 111.762 118.153 111.94 118.225C112.118 118.298 112.308 118.334 112.5 118.333C112.7 118.327 112.896 118.28 113.076 118.194C113.257 118.109 113.418 117.988 113.55 117.837L123.758 106.171C123.994 105.878 124.108 105.506 124.076 105.131C124.043 104.757 123.868 104.41 123.586 104.161C123.304 103.913 122.937 103.783 122.561 103.799C122.186 103.815 121.831 103.975 121.571 104.246L112.5 114.746L109.16 111.465Z" fill="#FF0000"/>
<path d="M125.625 111.042C125.238 111.042 124.867 111.195 124.594 111.469C124.32 111.742 124.167 112.113 124.167 112.5C124.167 115.594 122.938 118.562 120.75 120.75C118.562 122.938 115.594 124.167 112.5 124.167C110.196 124.166 107.944 123.482 106.028 122.203C104.111 120.924 102.617 119.106 101.732 116.978C100.848 114.851 100.613 112.509 101.058 110.248C101.503 107.987 102.607 105.909 104.231 104.275C105.311 103.18 106.599 102.312 108.019 101.721C109.439 101.13 110.962 100.828 112.5 100.833C113.433 100.839 114.362 100.947 115.271 101.154C115.461 101.213 115.661 101.232 115.859 101.211C116.057 101.189 116.249 101.127 116.422 101.029C116.595 100.931 116.746 100.798 116.866 100.639C116.986 100.48 117.072 100.298 117.119 100.104C117.166 99.9108 117.173 99.7097 117.139 99.5134C117.105 99.3171 117.031 99.1299 116.923 98.9632C116.814 98.7964 116.672 98.6538 116.505 98.5441C116.339 98.4343 116.152 98.3598 115.956 98.325C114.823 98.0585 113.664 97.9215 112.5 97.9167C109.619 97.9316 106.807 98.7997 104.418 100.411C102.03 102.023 100.173 104.306 99.0806 106.972C97.9885 109.638 97.7107 112.568 98.2822 115.392C98.8537 118.216 100.249 120.808 102.292 122.84C104.999 125.548 108.67 127.074 112.5 127.083C116.368 127.083 120.077 125.547 122.812 122.812C125.547 120.077 127.083 116.368 127.083 112.5C127.083 112.113 126.93 111.742 126.656 111.469C126.383 111.195 126.012 111.042 125.625 111.042Z" fill="#FF0000"/>
</g>
</g>
<defs>
<filter id="filter0_d_1_2" x="80.375" y="84.375" width="64.25" height="64.25" filterUnits="userSpaceOnUse" color-interpolation-filters="sRGB">
<feFlood flood-opacity="0" result="BackgroundImageFix"/>
<feColorMatrix in="SourceAlpha" type="matrix" values="0 0 0 0 0 0 0 0 0 0 0 0 0 0 0 0 0 0 127 0" result="hardAlpha"/>
<feOffset dy="4"/>
<feGaussianBlur stdDeviation="2"/>
<feComposite in2="hardAlpha" operator="out"/>
<feColorMatrix type="matrix" values="0 0 0 0 0 0 0 0 0 0 0 0 0 0 0 0 0 0 0.25 0"/>
<feBlend mode="normal" in2="BackgroundImageFix" result="effect1_dropShadow_1_2"/>
<feBlend mode="normal" in="SourceGraphic" in2="effect1_dropShadow_1_2" result="shape"/>
</filter>
<clipPath id="clip0_1_2">
<rect width="150" height="150" fill="white"/>
</clipPath>
<clipPath id="clip1_1_2">
<rect width="35" height="35" fill="white" transform="translate(95 95)"/>
</clipPath>
</defs>
</svg>
