<?xml version="1.0" ?><svg xmlns="http://www.w3.org/2000/svg" id="Layer_2" viewBox="0 0 32 32"><defs><style>.cls-1{fill:none;}.cls-1,.cls-2{stroke-width:0px;}</style></defs><g id="icons"><g id="Organization"><g id="File"><path class="cls-2" d="m24,30c-3.31,0-6-2.69-6-6s2.69-6,6-6,6,2.69,6,6-2.69,6-6,6Zm0-10c-2.21,0-4,1.79-4,4s1.79,4,4,4,4-1.79,4-4-1.79-4-4-4Z"/><rect class="cls-2" x="8" y="22" width="8" height="2"/><rect class="cls-2" x="8" y="16" width="10" height="2"/><rect id="_Transparent_Rectangle_" class="cls-1" width="32" height="32"/><path class="cls-2" d="m16,28H6V4h8v6c0,1.1.9,2,2,2h6v3h2v-5c0-.3-.1-.5-.3-.7l-7-7c-.2-.2-.4-.3-.7-.3H6c-1.1,0-2,.9-2,2v24c0,1.1.9,2,2,2h10v-2Zm0-23.6l5.6,5.6h-5.6v-5.6Z"/></g></g></g></svg>